<?xml version="1.0" encoding="UTF-8" standalone="no"?>
<svg
   viewBox="0 0 255.99942 255.98954"
   version="1.1"
   id="svg2"
   sodipodi:docname="clipsneko-logo.svg"
   width="255.9995"
   height="255.98956"
   inkscape:version="1.4.3 (0d15f75, 2025-12-25)"
   xmlns:inkscape="http://www.inkscape.org/namespaces/inkscape"
   xmlns:sodipodi="http://sodipodi.sourceforge.net/DTD/sodipodi-0.dtd"
   xmlns="http://www.w3.org/2000/svg"
   xmlns:svg="http://www.w3.org/2000/svg">
  <defs
     id="defs2" />
  <sodipodi:namedview
     id="namedview2"
     pagecolor="#ffffff"
     bordercolor="#000000"
     borderopacity="0.25"
     inkscape:showpageshadow="2"
     inkscape:pageopacity="0.0"
     inkscape:pagecheckerboard="0"
     inkscape:deskcolor="#d1d1d1"
     inkscape:zoom="1.9163318"
     inkscape:cx="53.487606"
     inkscape:cy="138.80686"
     inkscape:window-width="1707"
     inkscape:window-height="993"
     inkscape:window-x="0"
     inkscape:window-y="0"
     inkscape:window-maximized="1"
     inkscape:current-layer="svg2" />
  <g
     transform="matrix(0.48376253,-0.02313361,0.02619282,0.4272603,-131.9178,-74.638167)"
     fill="#f9cecd"
     id="g2"
     style="opacity:1;stroke-width:1;stroke-dasharray:none;fill:#ffc1cd;fill-opacity:1">
    <path
       d="m 648.41,332.82 c -28.73878,-1.3181 -47.85207,25.23844 -70.04281,39.65891 C 536.71881,408.10717 499.51985,448.68354 462.35,488.88 c -29.28435,34.84406 -59.14931,70.40599 -79.0575,111.53875 -1.26544,29.53898 36.2989,-1.59133 48.62594,-7.61797 19.16845,-10.25284 42.34597,-28.57872 63.57156,-24.24078 -4.33477,21.26116 -29.03093,35.58383 -36.25,57.07 -15.10377,29.39581 32.59067,9.6844 45.42375,6 9.30396,-4.91289 57.47179,-12.08295 30.11625,3.29 -12.21479,4.13851 -44.08621,23.04842 -14.36,27.93 27.17828,10.2033 53.65384,24.03172 72.46,46.82 15.45851,20.35995 25.10975,-0.95566 9.79375,-14.20125 C 588.17492,677.71113 567.27601,666.44111 549.53,653.18 c 1.545,-14.96939 50.2345,-28.23735 27.055,-43.40875 -28.342,-6.88836 -56.63485,4.70939 -84.865,5.71875 -5.23092,-15.42787 23.74132,-32.31044 34.95,-43.31 17.24781,-7.07805 22.04131,-35.71491 -3.63,-27.27 -26.3506,2.68076 -52.42782,8.09835 -76.42,19.61 -12.64363,9.9441 -38.32613,7.67313 -16.05,-8.93 41.68801,-54.61697 89.83402,-103.9287 138.87,-151.93 23.20985,-18.68959 44.96881,-40.18749 71.3975,-54.21125 26.39595,-2.69786 11.87607,44.1243 26.38125,59.70875 12.32642,-11.83901 9.14301,-54.22561 -4.75875,-71.4875 -4.21095,-2.65215 -9.26328,-3.73412 -14.05,-4.85 z"
       id="path1"
       style="stroke-width:1;stroke-dasharray:none;fill:#ffc1cd;fill-opacity:1" />
    <path
       d="m 680.03,239.62 c -32.31053,0.46806 -62.7736,12.79296 -92.66,23.86 -44.19769,18.48088 -85.63588,42.60155 -124.53594,70.46359 -32.33264,23.10742 -64.69543,45.75256 -92.10906,74.70891 -33.92829,34.34027 -69.50021,67.52966 -99.635,105.2875 -2.13148,25.84431 29.89802,-8.08672 36.24062,-18.48328 64.63874,-72.64113 140.6668,-135.18529 224.30188,-184.67172 32.78924,-17.01787 65.67572,-34.37174 101.6475,-43.765 23.36845,-6.94457 53.84236,-18.93775 73.63,2.07625 20.89481,24.43642 22.21893,58.60474 27.63,88.92375 3.26894,52.53199 1.00749,105.59902 -6.15,157.77 -11.31125,78.75999 -30.92168,156.23258 -56.06,231.62125 -12.11594,12.39905 -9.28294,50.75897 9.52,24.74875 18.05419,-47.21233 29.38236,-96.77979 43.28,-145.35 8.41285,-38.67639 17.30875,-77.26716 20.94,-116.79 8.24349,-50.67491 10.21129,-102.70835 5.8075,-153.91125 -3.36009,-34.14315 -9.62797,-69.80962 -28.8125,-98.7175 C 711.9643,245.42239 696.07455,239.96131 680.03,239.62 Z"
       id="path2"
       style="stroke-width:1;stroke-dasharray:none;fill:#ffc1cd;fill-opacity:1" />
  </g>
</svg>
